<?xml version="1.0" standalone="no"?>
<!DOCTYPE svg PUBLIC "-//W3C//DTD SVG 20010904//EN"
 "http://www.w3.org/TR/2001/REC-SVG-20010904/DTD/svg10.dtd">
<svg version="1.0" xmlns="http://www.w3.org/2000/svg"
 width="150.000000pt" height="140.000000pt" viewBox="0 0 150.000000 140.000000"
 preserveAspectRatio="xMidYMid meet">

<g transform="translate(0.000000,140.000000) scale(0.100000,-0.100000)"
fill="#000000" stroke="none">
<path d="M734 1348 c6 -31 19 -538 13 -538 -2 0 -51 70 -107 155 l-104 156
-44 -3 -44 -3 -219 -535 c-120 -294 -219 -538 -219 -542 0 -5 22 -8 49 -8 l48
0 67 179 67 178 67 7 c37 3 147 6 245 6 115 0 177 4 177 10 0 7 -78 10 -235 8
-166 -2 -235 0 -235 8 0 12 197 540 210 563 9 17 -14 53 352 -536 l263 -422
83 -1 c45 0 82 3 82 6 0 3 -108 169 -239 369 l-239 364 -7 273 -7 273 218
-320 c119 -176 273 -402 341 -502 104 -154 128 -183 148 -183 l25 0 0 530 c0
343 -3 530 -10 530 -6 0 -11 -150 -12 -416 l-3 -417 -278 417 -277 416 -90 0
c-88 0 -90 0 -86 -22z"/>
</g>
</svg>
